<svg aria-hidden="true" style="position: absolute; width: 0; height: 0; overflow: hidden;" version="1.1" xmlns="http://www.w3.org/2000/svg" xmlns:xlink="http://www.w3.org/1999/xlink">
<defs>
<symbol id="icon-untitled" viewBox="0 0 178 32">
<path d="M27.542 28.991l-0.459-2.14c-0.945-4.409-2.676-8.552-5.146-12.32v-3.472c1.138-0.856 1.875-2.217 1.875-3.747v-1.875c0-0.518-0.42-0.938-0.937-0.938h-0.937v-3.563c0-0.518-0.42-0.938-0.938-0.938s-0.937 0.42-0.937 0.938v3.572c-1.684 0.098-3.159 0.984-4.062 2.294-0.904-1.31-2.379-2.195-4.063-2.294v-3.572c0-0.518-0.42-0.938-0.938-0.938s-0.938 0.42-0.938 0.938v3.563h-0.938c-0.518 0-0.938 0.42-0.938 0.938v1.875c0 1.53 0.737 2.891 1.875 3.747v3.472c-2.47 3.768-4.201 7.911-5.146 12.32l-0.458 2.14c-0.098 0.457 0.156 0.917 0.596 1.077 3.519 1.282 7.201 1.932 10.946 1.932s7.427-0.65 10.946-1.932c0.44-0.16 0.694-0.62 0.596-1.077zM20.375 6.375h1.563v0.938c0 1.551-1.262 2.813-2.813 2.813h-2.188v-0.313c0-1.895 1.542-3.438 3.438-3.438zM10.063 6.375h1.563c1.895 0 3.438 1.542 3.438 3.438v0.313h-2.188c-1.551 0-2.813-1.262-2.813-2.813v-0.938zM12.875 12h6.25c0.321 0 0.634-0.033 0.937-0.094v1.969h-8.125v-1.969c0.303 0.062 0.617 0.094 0.938 0.094zM16 30.125c-3.253 0-6.457-0.521-9.535-1.55l0.285-1.331c0.88-4.107 2.479-7.972 4.756-11.494h8.988c2.276 3.522 3.876 7.387 4.756 11.494l0.285 1.331c-3.078 1.029-6.282 1.55-9.535 1.55z"></path>
<path d="M53.146 8.581h1.741l1.925 5.059 1.946-5.059h1.741l-2.519 6.328 2.499 6.001 4.915-12.411h2.007l-6.083 14.541h-1.597l-2.888-6.861-2.908 6.861h-1.597l-6.062-14.541h1.987l4.936 12.411 2.478-6.001-2.519-6.328zM76.707 23.142c-1.024 0-1.953-0.205-2.785-0.614s-1.556-0.963-2.171-1.659c-0.601-0.71-1.065-1.502-1.393-2.376-0.328-0.887-0.492-1.795-0.492-2.724 0-0.969 0.171-1.891 0.512-2.765 0.355-0.887 0.84-1.673 1.454-2.355 0.628-0.696 1.358-1.242 2.191-1.638 0.833-0.41 1.741-0.614 2.724-0.614 1.024 0 1.952 0.212 2.785 0.635s1.55 0.99 2.15 1.7c0.601 0.71 1.065 1.502 1.393 2.376s0.492 1.768 0.492 2.683c0 0.969-0.171 1.898-0.512 2.785-0.341 0.874-0.826 1.659-1.454 2.355-0.614 0.683-1.338 1.222-2.171 1.618s-1.741 0.594-2.724 0.594zM71.73 15.77c0 0.737 0.116 1.454 0.348 2.15 0.246 0.683 0.587 1.29 1.024 1.823s0.963 0.956 1.577 1.27 1.297 0.471 2.048 0.471c0.778 0 1.475-0.164 2.089-0.492s1.133-0.765 1.556-1.311c0.437-0.546 0.765-1.161 0.983-1.843 0.232-0.683 0.348-1.372 0.348-2.068 0-0.737-0.123-1.447-0.369-2.13-0.232-0.683-0.573-1.29-1.024-1.823-0.437-0.546-0.963-0.969-1.577-1.27-0.601-0.314-1.27-0.471-2.007-0.471-0.778 0-1.475 0.164-2.089 0.492-0.614 0.314-1.14 0.744-1.577 1.29-0.423 0.546-0.751 1.161-0.983 1.843-0.232 0.669-0.348 1.358-0.348 2.068zM100.751 23.040v-11.1l-4.792 8.54h-1.126l-4.813-8.54v11.1h-1.843v-14.541h1.946l5.263 9.441 5.284-9.441h1.925v14.541h-1.843zM112.548 8.499h1.556l5.939 14.541h-1.966l-1.72-4.26h-6.103l-1.7 4.26h-1.966l5.96-14.541zM115.948 17.347l-2.621-6.717-2.703 6.717h5.325zM122.947 21.606l9.38-11.469h-9.196v-1.638h11.346v1.434l-9.216 11.469h9.216v1.638h-11.531v-1.434zM139 23.040v-14.541h1.843v14.541h-1.843zM148.212 11.899v11.141h-1.843v-14.541h1.556l8.888 11.366v-11.346h1.843v14.52h-1.679l-8.765-11.141zM170.013 23.142c-0.956 0-1.85-0.205-2.683-0.614-0.819-0.423-1.536-0.983-2.15-1.679-0.614-0.71-1.092-1.502-1.434-2.376-0.342-0.887-0.512-1.802-0.512-2.744 0-0.983 0.17-1.911 0.512-2.785 0.342-0.887 0.813-1.673 1.413-2.355 0.614-0.683 1.331-1.215 2.15-1.597 0.833-0.396 1.734-0.594 2.703-0.594 1.407 0 2.566 0.294 3.482 0.881s1.604 1.352 2.068 2.294l-1.413 0.983c-0.424-0.847-1.004-1.475-1.741-1.884s-1.55-0.614-2.437-0.614c-0.737 0-1.407 0.157-2.007 0.471s-1.12 0.744-1.556 1.29c-0.424 0.532-0.751 1.14-0.983 1.823-0.219 0.683-0.328 1.393-0.328 2.13 0 1.038 0.219 1.993 0.655 2.867 0.451 0.86 1.059 1.55 1.823 2.068s1.624 0.778 2.58 0.778c0.778 0 1.522-0.184 2.232-0.553 0.723-0.382 1.407-0.963 2.048-1.741v-2.007h-3.133v-1.393h4.69v7.25h-1.556v-1.966c-1.256 1.379-2.73 2.068-4.424 2.068z"></path>
</symbol>
</defs>
</svg>
