<svg aria-hidden="true" style="position: absolute; width: 0; height: 0; overflow: hidden;" version="1.1" xmlns="http://www.w3.org/2000/svg" xmlns:xlink="http://www.w3.org/1999/xlink">
<defs>
<symbol id="icon-telephone" viewBox="0 0 32 32">
<path   d="M9.781 9.264c-1.78 1.78-1.78 4.676-0 6.456l0.945-0.945c-1.259-1.259-1.259-3.306 0-4.565s3.306-1.259 4.565-0l0.945-0.945c-1.78-1.78-4.676-1.78-6.456-0z"></path>
<path   d="M11.664 11.13c-0.749 0.749-0.749 1.968-0 2.718l0.946-0.945c-0.11-0.11-0.171-0.257-0.171-0.413s0.061-0.303 0.171-0.413c0.11-0.11 0.257-0.171 0.413-0.171s0.303 0.061 0.413 0.171l0.945-0.945c-0.749-0.749-1.968-0.749-2.718-0z"></path>
<path   d="M23.405 8.812l-2.244-2.236-4.66 4.652 1.806 1.866c-0.303 0.537-0.96 1.567-2.079 2.686s-2.157 1.784-2.699 2.092l-1.829-1.806-4.587 4.56 2.231 2.246c0.853 0.853 2.151 1.074 3.23 0.55 1.646-0.8 4.131-2.275 6.618-4.762s3.963-4.972 4.762-6.618c0.189-0.39 0.281-0.809 0.281-1.225 0-0.734-0.287-1.46-0.832-2.005zM22.753 11.458c-0.755 1.554-2.149 3.901-4.505 6.257s-4.703 3.75-6.257 4.505c-0.567 0.275-1.25 0.157-1.699-0.291l-1.288-1.297 2.7-2.684 1.558 1.538 0.417-0.186c0.068-0.030 1.68-0.76 3.495-2.575 1.817-1.816 2.531-3.415 2.56-3.482l0.181-0.411-1.538-1.588 2.784-2.78 1.298 1.294c0.45 0.45 0.567 1.133 0.292 1.7z"></path>
</symbol>
</defs>
</svg>
